<svg xmlns="http://www.w3.org/2000/svg" viewBox="0 0 1024 1024" role="img" aria-label="MVP Voice Chat">
  <defs>
    <linearGradient id="bg" x1="0" x2="1" y1="0" y2="1">
      <stop offset="0%" stop-color="#7c3aed" />
      <stop offset="100%" stop-color="#06b6d4" />
    </linearGradient>
  </defs>
  <rect width="1024" height="1024" rx="220" fill="url(#bg)" />
  <path d="M720 210H304c-52 0-94 42-94 94v248c0 52 42 94 94 94h64v120c0 18 21 29 36 19l164-110h152c52 0 94-42 94-94V304c0-52-42-94-94-94z" fill="#ffffff" opacity="0.96" />
  <rect x="360" y="376" width="304" height="42" rx="21" fill="#7c3aed" />
  <rect x="360" y="466" width="220" height="42" rx="21" fill="#0f172a" opacity="0.18" />
  <circle cx="398" cy="650" r="24" fill="#06b6d4" />
  <circle cx="512" cy="650" r="24" fill="#7c3aed" />
  <circle cx="626" cy="650" r="24" fill="#f97316" />
</svg>
